<mxfile host="app.diagrams.net" agent="Mozilla/5.0 (Windows NT 10.0; Win64; x64) AppleWebKit/537.36 (KHTML, like Gecko) Chrome/127.0.0.0 Safari/537.36" version="24.7.7">
  <diagram name="페이지-1" id="6CV83bgy7oQ5dLoQj94A">
    <mxGraphModel dx="1050" dy="522" grid="1" gridSize="10" guides="1" tooltips="1" connect="1" arrows="1" fold="1" page="1" pageScale="1" pageWidth="827" pageHeight="1169" math="0" shadow="0">
      <root>
        <mxCell id="0" />
        <mxCell id="1" parent="0" />
        <mxCell id="RxnCDtEKashzzXH9Kmyd-32" style="rounded=0;orthogonalLoop=1;jettySize=auto;html=1;endArrow=none;endFill=0;entryX=0;entryY=0.5;entryDx=0;entryDy=0;" parent="1" source="RxnCDtEKashzzXH9Kmyd-1" target="RxnCDtEKashzzXH9Kmyd-3" edge="1">
          <mxGeometry relative="1" as="geometry" />
        </mxCell>
        <mxCell id="RxnCDtEKashzzXH9Kmyd-1" value="과목" style="whiteSpace=wrap;html=1;align=center;" parent="1" vertex="1">
          <mxGeometry x="120" y="260" width="100" height="40" as="geometry" />
        </mxCell>
        <mxCell id="RxnCDtEKashzzXH9Kmyd-2" value="과목 명" style="ellipse;whiteSpace=wrap;html=1;align=center;" parent="1" vertex="1">
          <mxGeometry x="80" y="90" width="100" height="40" as="geometry" />
        </mxCell>
        <mxCell id="RxnCDtEKashzzXH9Kmyd-3" value="Relationship" style="shape=rhombus;perimeter=rhombusPerimeter;whiteSpace=wrap;html=1;align=center;" parent="1" vertex="1">
          <mxGeometry x="260" y="340" width="120" height="60" as="geometry" />
        </mxCell>
        <mxCell id="RxnCDtEKashzzXH9Kmyd-4" value="&lt;span style=&quot;border-bottom: 1px dotted&quot;&gt;과목번호&lt;/span&gt;" style="ellipse;whiteSpace=wrap;html=1;align=center;" parent="1" vertex="1">
          <mxGeometry x="30" y="150" width="100" height="40" as="geometry" />
        </mxCell>
        <mxCell id="RxnCDtEKashzzXH9Kmyd-5" value="담당 교수" style="ellipse;whiteSpace=wrap;html=1;align=center;" parent="1" vertex="1">
          <mxGeometry x="190" y="120" width="100" height="40" as="geometry" />
        </mxCell>
        <mxCell id="RxnCDtEKashzzXH9Kmyd-18" style="rounded=0;orthogonalLoop=1;jettySize=auto;html=1;entryX=0.5;entryY=0;entryDx=0;entryDy=0;endArrow=none;endFill=0;" parent="1" source="RxnCDtEKashzzXH9Kmyd-6" target="RxnCDtEKashzzXH9Kmyd-1" edge="1">
          <mxGeometry relative="1" as="geometry" />
        </mxCell>
        <mxCell id="RxnCDtEKashzzXH9Kmyd-6" value="강의 요일/시간" style="ellipse;whiteSpace=wrap;html=1;align=center;" parent="1" vertex="1">
          <mxGeometry x="350" y="150" width="100" height="40" as="geometry" />
        </mxCell>
        <mxCell id="RxnCDtEKashzzXH9Kmyd-7" value="수강 년도/학기" style="ellipse;whiteSpace=wrap;html=1;align=center;" parent="1" vertex="1">
          <mxGeometry x="280" y="90" width="100" height="40" as="geometry" />
        </mxCell>
        <mxCell id="RxnCDtEKashzzXH9Kmyd-14" style="rounded=0;orthogonalLoop=1;jettySize=auto;html=1;entryX=0.68;entryY=1.06;entryDx=0;entryDy=0;entryPerimeter=0;endArrow=none;endFill=0;" parent="1" source="RxnCDtEKashzzXH9Kmyd-1" target="RxnCDtEKashzzXH9Kmyd-4" edge="1">
          <mxGeometry relative="1" as="geometry" />
        </mxCell>
        <mxCell id="RxnCDtEKashzzXH9Kmyd-15" style="rounded=0;orthogonalLoop=1;jettySize=auto;html=1;entryX=0.708;entryY=1.02;entryDx=0;entryDy=0;entryPerimeter=0;endArrow=none;endFill=0;" parent="1" source="RxnCDtEKashzzXH9Kmyd-1" target="RxnCDtEKashzzXH9Kmyd-2" edge="1">
          <mxGeometry relative="1" as="geometry" />
        </mxCell>
        <mxCell id="RxnCDtEKashzzXH9Kmyd-16" style="rounded=0;orthogonalLoop=1;jettySize=auto;html=1;entryX=0.5;entryY=1;entryDx=0;entryDy=0;endArrow=none;endFill=0;exitX=0.5;exitY=0;exitDx=0;exitDy=0;" parent="1" source="RxnCDtEKashzzXH9Kmyd-1" target="RxnCDtEKashzzXH9Kmyd-5" edge="1">
          <mxGeometry relative="1" as="geometry">
            <mxPoint x="360" y="310" as="sourcePoint" />
            <mxPoint x="341" y="181" as="targetPoint" />
          </mxGeometry>
        </mxCell>
        <mxCell id="RxnCDtEKashzzXH9Kmyd-17" style="rounded=0;orthogonalLoop=1;jettySize=auto;html=1;entryX=0.5;entryY=1;entryDx=0;entryDy=0;endArrow=none;endFill=0;exitX=0.5;exitY=0;exitDx=0;exitDy=0;jumpStyle=gap;" parent="1" source="RxnCDtEKashzzXH9Kmyd-1" target="RxnCDtEKashzzXH9Kmyd-7" edge="1">
          <mxGeometry relative="1" as="geometry">
            <mxPoint x="180" y="270" as="sourcePoint" />
            <mxPoint x="250" y="170" as="targetPoint" />
          </mxGeometry>
        </mxCell>
        <mxCell id="RxnCDtEKashzzXH9Kmyd-33" style="rounded=0;orthogonalLoop=1;jettySize=auto;html=1;entryX=1;entryY=0.5;entryDx=0;entryDy=0;endArrow=none;endFill=0;exitX=0;exitY=0.75;exitDx=0;exitDy=0;" parent="1" source="RxnCDtEKashzzXH9Kmyd-19" target="RxnCDtEKashzzXH9Kmyd-3" edge="1">
          <mxGeometry relative="1" as="geometry" />
        </mxCell>
        <mxCell id="RxnCDtEKashzzXH9Kmyd-50" style="rounded=0;orthogonalLoop=1;jettySize=auto;html=1;entryX=0;entryY=0.5;entryDx=0;entryDy=0;endArrow=none;endFill=0;" parent="1" source="RxnCDtEKashzzXH9Kmyd-19" target="RxnCDtEKashzzXH9Kmyd-49" edge="1">
          <mxGeometry relative="1" as="geometry" />
        </mxCell>
        <mxCell id="RxnCDtEKashzzXH9Kmyd-19" value="To do 항목" style="whiteSpace=wrap;html=1;align=center;" parent="1" vertex="1">
          <mxGeometry x="510" y="270" width="100" height="40" as="geometry" />
        </mxCell>
        <mxCell id="RxnCDtEKashzzXH9Kmyd-20" value="To do list번호" style="ellipse;whiteSpace=wrap;html=1;align=center;fillStyle=auto;fontStyle=4" parent="1" vertex="1">
          <mxGeometry x="440" y="180" width="100" height="40" as="geometry" />
        </mxCell>
        <mxCell id="RxnCDtEKashzzXH9Kmyd-21" value="To do 항목 명" style="ellipse;whiteSpace=wrap;html=1;align=center;" parent="1" vertex="1">
          <mxGeometry x="470" y="90" width="130" height="40" as="geometry" />
        </mxCell>
        <mxCell id="RxnCDtEKashzzXH9Kmyd-22" value="마감 기한" style="ellipse;whiteSpace=wrap;html=1;align=center;" parent="1" vertex="1">
          <mxGeometry x="560" y="140" width="100" height="40" as="geometry" />
        </mxCell>
        <mxCell id="RxnCDtEKashzzXH9Kmyd-30" style="rounded=0;orthogonalLoop=1;jettySize=auto;html=1;endArrow=none;endFill=0;" parent="1" source="RxnCDtEKashzzXH9Kmyd-23" edge="1">
          <mxGeometry relative="1" as="geometry">
            <mxPoint x="540" y="270" as="targetPoint" />
          </mxGeometry>
        </mxCell>
        <mxCell id="RxnCDtEKashzzXH9Kmyd-23" value="실제 마감일" style="ellipse;whiteSpace=wrap;html=1;align=center;" parent="1" vertex="1">
          <mxGeometry x="690" y="200" width="100" height="40" as="geometry" />
        </mxCell>
        <mxCell id="RxnCDtEKashzzXH9Kmyd-31" style="edgeStyle=orthogonalEdgeStyle;rounded=0;orthogonalLoop=1;jettySize=auto;html=1;entryX=1;entryY=0.5;entryDx=0;entryDy=0;endArrow=none;endFill=0;" parent="1" source="RxnCDtEKashzzXH9Kmyd-24" target="RxnCDtEKashzzXH9Kmyd-19" edge="1">
          <mxGeometry relative="1" as="geometry" />
        </mxCell>
        <mxCell id="RxnCDtEKashzzXH9Kmyd-24" value="중요 여부" style="ellipse;whiteSpace=wrap;html=1;align=center;" parent="1" vertex="1">
          <mxGeometry x="710" y="270" width="100" height="40" as="geometry" />
        </mxCell>
        <mxCell id="RxnCDtEKashzzXH9Kmyd-29" style="rounded=0;orthogonalLoop=1;jettySize=auto;html=1;endArrow=none;endFill=0;" parent="1" source="RxnCDtEKashzzXH9Kmyd-25" edge="1">
          <mxGeometry relative="1" as="geometry">
            <mxPoint x="540" y="270" as="targetPoint" />
          </mxGeometry>
        </mxCell>
        <mxCell id="RxnCDtEKashzzXH9Kmyd-25" value="완료 여부" style="ellipse;whiteSpace=wrap;html=1;align=center;" parent="1" vertex="1">
          <mxGeometry x="670" y="110" width="100" height="40" as="geometry" />
        </mxCell>
        <mxCell id="RxnCDtEKashzzXH9Kmyd-26" style="rounded=0;orthogonalLoop=1;jettySize=auto;html=1;entryX=0.344;entryY=-0.02;entryDx=0;entryDy=0;entryPerimeter=0;endArrow=none;endFill=0;" parent="1" source="RxnCDtEKashzzXH9Kmyd-20" target="RxnCDtEKashzzXH9Kmyd-19" edge="1">
          <mxGeometry relative="1" as="geometry" />
        </mxCell>
        <mxCell id="RxnCDtEKashzzXH9Kmyd-27" style="edgeStyle=orthogonalEdgeStyle;rounded=0;orthogonalLoop=1;jettySize=auto;html=1;entryX=0.344;entryY=0.12;entryDx=0;entryDy=0;entryPerimeter=0;endArrow=none;endFill=0;" parent="1" source="RxnCDtEKashzzXH9Kmyd-21" target="RxnCDtEKashzzXH9Kmyd-19" edge="1">
          <mxGeometry relative="1" as="geometry">
            <Array as="points">
              <mxPoint x="544" y="170" />
              <mxPoint x="544" y="170" />
            </Array>
          </mxGeometry>
        </mxCell>
        <mxCell id="RxnCDtEKashzzXH9Kmyd-28" style="rounded=0;orthogonalLoop=1;jettySize=auto;html=1;endArrow=none;endFill=0;" parent="1" source="RxnCDtEKashzzXH9Kmyd-22" edge="1">
          <mxGeometry relative="1" as="geometry">
            <mxPoint x="540" y="270" as="targetPoint" />
          </mxGeometry>
        </mxCell>
        <mxCell id="RxnCDtEKashzzXH9Kmyd-44" style="rounded=0;orthogonalLoop=1;jettySize=auto;html=1;exitX=1;exitY=0.5;exitDx=0;exitDy=0;entryX=0;entryY=0.5;entryDx=0;entryDy=0;endArrow=none;endFill=0;" parent="1" source="RxnCDtEKashzzXH9Kmyd-34" target="RxnCDtEKashzzXH9Kmyd-43" edge="1">
          <mxGeometry relative="1" as="geometry" />
        </mxCell>
        <mxCell id="RxnCDtEKashzzXH9Kmyd-34" value="회원" style="whiteSpace=wrap;html=1;align=center;" parent="1" vertex="1">
          <mxGeometry x="130" y="510" width="100" height="40" as="geometry" />
        </mxCell>
        <mxCell id="RxnCDtEKashzzXH9Kmyd-35" value="ID" style="ellipse;whiteSpace=wrap;html=1;align=center;" parent="1" vertex="1">
          <mxGeometry x="50" y="640" width="100" height="40" as="geometry" />
        </mxCell>
        <mxCell id="RxnCDtEKashzzXH9Kmyd-36" value="비밀번호" style="ellipse;whiteSpace=wrap;html=1;align=center;" parent="1" vertex="1">
          <mxGeometry x="190" y="640" width="110" height="40" as="geometry" />
        </mxCell>
        <mxCell id="RxnCDtEKashzzXH9Kmyd-37" value="학년" style="ellipse;whiteSpace=wrap;html=1;align=center;" parent="1" vertex="1">
          <mxGeometry x="314" y="640" width="100" height="40" as="geometry" />
        </mxCell>
        <mxCell id="RxnCDtEKashzzXH9Kmyd-38" value="학과" style="ellipse;whiteSpace=wrap;html=1;align=center;" parent="1" vertex="1">
          <mxGeometry x="440" y="640" width="100" height="40" as="geometry" />
        </mxCell>
        <mxCell id="RxnCDtEKashzzXH9Kmyd-39" style="rounded=0;orthogonalLoop=1;jettySize=auto;html=1;exitX=0.5;exitY=1;exitDx=0;exitDy=0;entryX=0.632;entryY=-0.03;entryDx=0;entryDy=0;entryPerimeter=0;endArrow=none;endFill=0;" parent="1" source="RxnCDtEKashzzXH9Kmyd-34" target="RxnCDtEKashzzXH9Kmyd-35" edge="1">
          <mxGeometry relative="1" as="geometry" />
        </mxCell>
        <mxCell id="RxnCDtEKashzzXH9Kmyd-40" style="rounded=0;orthogonalLoop=1;jettySize=auto;html=1;exitX=0.5;exitY=1;exitDx=0;exitDy=0;entryX=0.575;entryY=0.11;entryDx=0;entryDy=0;entryPerimeter=0;endArrow=none;endFill=0;" parent="1" source="RxnCDtEKashzzXH9Kmyd-34" target="RxnCDtEKashzzXH9Kmyd-36" edge="1">
          <mxGeometry relative="1" as="geometry">
            <mxPoint x="190" y="560" as="sourcePoint" />
            <mxPoint x="123" y="649" as="targetPoint" />
          </mxGeometry>
        </mxCell>
        <mxCell id="RxnCDtEKashzzXH9Kmyd-41" style="rounded=0;orthogonalLoop=1;jettySize=auto;html=1;exitX=0.5;exitY=1;exitDx=0;exitDy=0;entryX=0.5;entryY=0;entryDx=0;entryDy=0;endArrow=none;endFill=0;" parent="1" source="RxnCDtEKashzzXH9Kmyd-34" target="RxnCDtEKashzzXH9Kmyd-37" edge="1">
          <mxGeometry relative="1" as="geometry">
            <mxPoint x="190" y="560" as="sourcePoint" />
            <mxPoint x="263" y="654" as="targetPoint" />
          </mxGeometry>
        </mxCell>
        <mxCell id="RxnCDtEKashzzXH9Kmyd-42" style="rounded=0;orthogonalLoop=1;jettySize=auto;html=1;exitX=0.5;exitY=1;exitDx=0;exitDy=0;entryX=0.5;entryY=0;entryDx=0;entryDy=0;endArrow=none;endFill=0;" parent="1" source="RxnCDtEKashzzXH9Kmyd-34" target="RxnCDtEKashzzXH9Kmyd-38" edge="1">
          <mxGeometry relative="1" as="geometry">
            <mxPoint x="190" y="560" as="sourcePoint" />
            <mxPoint x="374" y="650" as="targetPoint" />
          </mxGeometry>
        </mxCell>
        <mxCell id="RxnCDtEKashzzXH9Kmyd-45" style="rounded=0;orthogonalLoop=1;jettySize=auto;html=1;entryX=0.5;entryY=1;entryDx=0;entryDy=0;endArrow=none;endFill=0;" parent="1" source="RxnCDtEKashzzXH9Kmyd-43" target="RxnCDtEKashzzXH9Kmyd-19" edge="1">
          <mxGeometry relative="1" as="geometry" />
        </mxCell>
        <mxCell id="RxnCDtEKashzzXH9Kmyd-43" value="등록" style="shape=rhombus;perimeter=rhombusPerimeter;whiteSpace=wrap;html=1;align=center;" parent="1" vertex="1">
          <mxGeometry x="410" y="430" width="120" height="60" as="geometry" />
        </mxCell>
        <mxCell id="RxnCDtEKashzzXH9Kmyd-48" style="rounded=0;orthogonalLoop=1;jettySize=auto;html=1;entryX=0.5;entryY=1;entryDx=0;entryDy=0;endArrow=none;endFill=0;" parent="1" source="RxnCDtEKashzzXH9Kmyd-47" target="RxnCDtEKashzzXH9Kmyd-1" edge="1">
          <mxGeometry relative="1" as="geometry" />
        </mxCell>
        <mxCell id="RxnCDtEKashzzXH9Kmyd-51" style="rounded=0;orthogonalLoop=1;jettySize=auto;html=1;entryX=0;entryY=0.75;entryDx=0;entryDy=0;endArrow=none;endFill=0;" parent="1" source="RxnCDtEKashzzXH9Kmyd-47" target="RxnCDtEKashzzXH9Kmyd-34" edge="1">
          <mxGeometry relative="1" as="geometry" />
        </mxCell>
        <mxCell id="RxnCDtEKashzzXH9Kmyd-47" value="Relationship" style="shape=rhombus;perimeter=rhombusPerimeter;whiteSpace=wrap;html=1;align=center;" parent="1" vertex="1">
          <mxGeometry x="30" y="370" width="120" height="60" as="geometry" />
        </mxCell>
        <mxCell id="RxnCDtEKashzzXH9Kmyd-49" value="과목번호" style="ellipse;whiteSpace=wrap;html=1;align=center;" parent="1" vertex="1">
          <mxGeometry x="680" y="340" width="100" height="40" as="geometry" />
        </mxCell>
      </root>
    </mxGraphModel>
  </diagram>
</mxfile>
